<mxfile host="app.diagrams.net" agent="Mozilla/5.0 (Macintosh; Intel Mac OS X 10_15_7) AppleWebKit/537.36 (KHTML, like Gecko) Chrome/129.0.0.0 Safari/537.36" version="24.8.0">
  <diagram name="Страница — 1" id="FCJ77otrnEmedMvmyJ0C">
    <mxGraphModel dx="1257" dy="831" grid="1" gridSize="10" guides="1" tooltips="1" connect="1" arrows="1" fold="1" page="1" pageScale="1" pageWidth="827" pageHeight="1169" math="0" shadow="0">
      <root>
        <mxCell id="0" />
        <mxCell id="1" parent="0" />
        <mxCell id="3owRR_AbAOub6mL03Mcm-2" value="" style="shape=table;startSize=0;container=1;collapsible=0;childLayout=tableLayout;" parent="1" vertex="1">
          <mxGeometry x="140" y="30" width="610" height="760" as="geometry" />
        </mxCell>
        <mxCell id="3owRR_AbAOub6mL03Mcm-3" value="" style="shape=tableRow;horizontal=0;startSize=0;swimlaneHead=0;swimlaneBody=0;strokeColor=inherit;top=0;left=0;bottom=0;right=0;collapsible=0;dropTarget=0;fillColor=none;points=[[0,0.5],[1,0.5]];portConstraint=eastwest;" parent="3owRR_AbAOub6mL03Mcm-2" vertex="1">
          <mxGeometry width="610" height="40" as="geometry" />
        </mxCell>
        <mxCell id="3owRR_AbAOub6mL03Mcm-4" value="&lt;b&gt;Заголовок&lt;/b&gt;" style="shape=partialRectangle;html=1;whiteSpace=wrap;connectable=0;strokeColor=inherit;overflow=hidden;fillColor=none;top=0;left=0;bottom=0;right=0;pointerEvents=1;" parent="3owRR_AbAOub6mL03Mcm-3" vertex="1">
          <mxGeometry width="160" height="40" as="geometry">
            <mxRectangle width="160" height="40" as="alternateBounds" />
          </mxGeometry>
        </mxCell>
        <mxCell id="3owRR_AbAOub6mL03Mcm-5" value="Онлайн-бронирование столика" style="shape=partialRectangle;html=1;whiteSpace=wrap;connectable=0;strokeColor=inherit;overflow=hidden;fillColor=none;top=0;left=0;bottom=0;right=0;pointerEvents=1;spacingLeft=7;spacingRight=7;" parent="3owRR_AbAOub6mL03Mcm-3" vertex="1">
          <mxGeometry x="160" width="450" height="40" as="geometry">
            <mxRectangle width="450" height="40" as="alternateBounds" />
          </mxGeometry>
        </mxCell>
        <mxCell id="3owRR_AbAOub6mL03Mcm-6" value="" style="shape=tableRow;horizontal=0;startSize=0;swimlaneHead=0;swimlaneBody=0;strokeColor=inherit;top=0;left=0;bottom=0;right=0;collapsible=0;dropTarget=0;fillColor=none;points=[[0,0.5],[1,0.5]];portConstraint=eastwest;" parent="3owRR_AbAOub6mL03Mcm-2" vertex="1">
          <mxGeometry y="40" width="610" height="40" as="geometry" />
        </mxCell>
        <mxCell id="3owRR_AbAOub6mL03Mcm-7" value="&lt;b&gt;Акторы&lt;/b&gt;" style="shape=partialRectangle;html=1;whiteSpace=wrap;connectable=0;strokeColor=inherit;overflow=hidden;fillColor=none;top=0;left=0;bottom=0;right=0;pointerEvents=1;" parent="3owRR_AbAOub6mL03Mcm-6" vertex="1">
          <mxGeometry width="160" height="40" as="geometry">
            <mxRectangle width="160" height="40" as="alternateBounds" />
          </mxGeometry>
        </mxCell>
        <mxCell id="3owRR_AbAOub6mL03Mcm-8" value="Пользователь&amp;nbsp;" style="shape=partialRectangle;html=1;whiteSpace=wrap;connectable=0;strokeColor=inherit;overflow=hidden;fillColor=none;top=0;left=0;bottom=0;right=0;pointerEvents=1;spacingLeft=7;spacingRight=7;" parent="3owRR_AbAOub6mL03Mcm-6" vertex="1">
          <mxGeometry x="160" width="450" height="40" as="geometry">
            <mxRectangle width="450" height="40" as="alternateBounds" />
          </mxGeometry>
        </mxCell>
        <mxCell id="3owRR_AbAOub6mL03Mcm-9" value="" style="shape=tableRow;horizontal=0;startSize=0;swimlaneHead=0;swimlaneBody=0;strokeColor=inherit;top=0;left=0;bottom=0;right=0;collapsible=0;dropTarget=0;fillColor=none;points=[[0,0.5],[1,0.5]];portConstraint=eastwest;" parent="3owRR_AbAOub6mL03Mcm-2" vertex="1">
          <mxGeometry y="80" width="610" height="40" as="geometry" />
        </mxCell>
        <mxCell id="3owRR_AbAOub6mL03Mcm-10" value="&lt;b&gt;Предусловие&lt;/b&gt;" style="shape=partialRectangle;html=1;whiteSpace=wrap;connectable=0;strokeColor=inherit;overflow=hidden;fillColor=none;top=0;left=0;bottom=0;right=0;pointerEvents=1;" parent="3owRR_AbAOub6mL03Mcm-9" vertex="1">
          <mxGeometry width="160" height="40" as="geometry">
            <mxRectangle width="160" height="40" as="alternateBounds" />
          </mxGeometry>
        </mxCell>
        <mxCell id="3owRR_AbAOub6mL03Mcm-11" value="Пользователь зашел на сайт выбранного ресторана" style="shape=partialRectangle;html=1;whiteSpace=wrap;connectable=0;strokeColor=inherit;overflow=hidden;fillColor=none;top=0;left=0;bottom=0;right=0;pointerEvents=1;spacingLeft=7;spacingRight=7;" parent="3owRR_AbAOub6mL03Mcm-9" vertex="1">
          <mxGeometry x="160" width="450" height="40" as="geometry">
            <mxRectangle width="450" height="40" as="alternateBounds" />
          </mxGeometry>
        </mxCell>
        <mxCell id="3owRR_AbAOub6mL03Mcm-12" value="" style="shape=tableRow;horizontal=0;startSize=0;swimlaneHead=0;swimlaneBody=0;strokeColor=inherit;top=0;left=0;bottom=0;right=0;collapsible=0;dropTarget=0;fillColor=none;points=[[0,0.5],[1,0.5]];portConstraint=eastwest;" parent="3owRR_AbAOub6mL03Mcm-2" vertex="1">
          <mxGeometry y="120" width="610" height="60" as="geometry" />
        </mxCell>
        <mxCell id="3owRR_AbAOub6mL03Mcm-13" value="&lt;b&gt;Ограничения&lt;/b&gt;" style="shape=partialRectangle;html=1;whiteSpace=wrap;connectable=0;strokeColor=inherit;overflow=hidden;fillColor=none;top=0;left=0;bottom=0;right=0;pointerEvents=1;" parent="3owRR_AbAOub6mL03Mcm-12" vertex="1">
          <mxGeometry width="160" height="60" as="geometry">
            <mxRectangle width="160" height="60" as="alternateBounds" />
          </mxGeometry>
        </mxCell>
        <mxCell id="3owRR_AbAOub6mL03Mcm-14" value="Бронирование доступно только на определенные часы работы ресторана&lt;br&gt;&lt;div&gt;Максимальное количество столиков, доступных для бронирования, ограничено одним столиком&lt;br&gt;&lt;/div&gt;" style="shape=partialRectangle;html=1;whiteSpace=wrap;connectable=0;strokeColor=inherit;overflow=hidden;fillColor=none;top=0;left=0;bottom=0;right=0;pointerEvents=1;spacingLeft=7;spacingRight=7;" parent="3owRR_AbAOub6mL03Mcm-12" vertex="1">
          <mxGeometry x="160" width="450" height="60" as="geometry">
            <mxRectangle width="450" height="60" as="alternateBounds" />
          </mxGeometry>
        </mxCell>
        <mxCell id="3owRR_AbAOub6mL03Mcm-15" value="" style="shape=tableRow;horizontal=0;startSize=0;swimlaneHead=0;swimlaneBody=0;strokeColor=inherit;top=0;left=0;bottom=0;right=0;collapsible=0;dropTarget=0;fillColor=none;points=[[0,0.5],[1,0.5]];portConstraint=eastwest;" parent="3owRR_AbAOub6mL03Mcm-2" vertex="1">
          <mxGeometry y="180" width="610" height="40" as="geometry" />
        </mxCell>
        <mxCell id="3owRR_AbAOub6mL03Mcm-16" value="&lt;b&gt;Триггер&lt;/b&gt;" style="shape=partialRectangle;html=1;whiteSpace=wrap;connectable=0;strokeColor=inherit;overflow=hidden;fillColor=none;top=0;left=0;bottom=0;right=0;pointerEvents=1;" parent="3owRR_AbAOub6mL03Mcm-15" vertex="1">
          <mxGeometry width="160" height="40" as="geometry">
            <mxRectangle width="160" height="40" as="alternateBounds" />
          </mxGeometry>
        </mxCell>
        <mxCell id="3owRR_AbAOub6mL03Mcm-17" value="Пользователь нажимает на кнопку &quot;Забронировать столик&quot;" style="shape=partialRectangle;html=1;whiteSpace=wrap;connectable=0;strokeColor=inherit;overflow=hidden;fillColor=none;top=0;left=0;bottom=0;right=0;pointerEvents=1;spacingLeft=7;spacingRight=7;" parent="3owRR_AbAOub6mL03Mcm-15" vertex="1">
          <mxGeometry x="160" width="450" height="40" as="geometry">
            <mxRectangle width="450" height="40" as="alternateBounds" />
          </mxGeometry>
        </mxCell>
        <mxCell id="3owRR_AbAOub6mL03Mcm-18" value="" style="shape=tableRow;horizontal=0;startSize=0;swimlaneHead=0;swimlaneBody=0;strokeColor=inherit;top=0;left=0;bottom=0;right=0;collapsible=0;dropTarget=0;fillColor=none;points=[[0,0.5],[1,0.5]];portConstraint=eastwest;" parent="3owRR_AbAOub6mL03Mcm-2" vertex="1">
          <mxGeometry y="220" width="610" height="390" as="geometry" />
        </mxCell>
        <mxCell id="3owRR_AbAOub6mL03Mcm-19" value="&lt;b&gt;Основной сценарий&lt;/b&gt;" style="shape=partialRectangle;html=1;whiteSpace=wrap;connectable=0;strokeColor=inherit;overflow=hidden;fillColor=none;top=0;left=0;bottom=0;right=0;pointerEvents=1;" parent="3owRR_AbAOub6mL03Mcm-18" vertex="1">
          <mxGeometry width="160" height="390" as="geometry">
            <mxRectangle width="160" height="390" as="alternateBounds" />
          </mxGeometry>
        </mxCell>
        <mxCell id="3owRR_AbAOub6mL03Mcm-20" value="&lt;ol style=&quot;text-align: left;&quot;&gt;&lt;li&gt;Система предлагает выбрать дату, время визита и количество гостей (экран 2)&lt;/li&gt;&lt;li&gt;Пользователь выбирает дату, время визита и количество гостей, нажимает кнопку &quot;Выбрать столик&quot;&lt;/li&gt;&lt;li&gt;Система отображает экран выбора столиков (экран 3)&lt;/li&gt;&lt;li&gt;Пользователь нажимает на выбранный столик&lt;/li&gt;&lt;li&gt;Система отображает кнопку &quot;Подтвердить выбор&quot; (экран 4)&lt;/li&gt;&lt;li&gt;Пользователь нажимает на кнопку &quot;Подтвердить выбор&quot;&lt;/li&gt;&lt;li&gt;Система предлагает ввести дополнительную информацию о визите (экран 5)&lt;/li&gt;&lt;li&gt;Пользователь вводит дополнительную информацию о визите и нажимает кнопку &quot;Далее&quot;&lt;/li&gt;&lt;li&gt;Система отображает информацию о визите и предлагает подтвердить бронирование (экран 6)&lt;/li&gt;&lt;li&gt;Пользователь нажимает на кнопку &quot;Подтвердить бронь&quot;&lt;/li&gt;&lt;li&gt;Система подтверждает успешное бронирование (экран 7)&lt;br&gt;&lt;b style=&quot;text-align: center;&quot;&gt;&lt;br&gt;&lt;/b&gt;&lt;/li&gt;&lt;b style=&quot;text-align: center; background-color: initial;&quot;&gt;Критерий успеха: столик успешно забронирован, пользователь получил подтверждение&lt;/b&gt;&lt;/ol&gt;" style="shape=partialRectangle;html=1;whiteSpace=wrap;connectable=0;strokeColor=inherit;overflow=hidden;fillColor=none;top=0;left=0;bottom=0;right=0;pointerEvents=1;spacingLeft=7;spacingRight=7;" parent="3owRR_AbAOub6mL03Mcm-18" vertex="1">
          <mxGeometry x="160" width="450" height="390" as="geometry">
            <mxRectangle width="450" height="390" as="alternateBounds" />
          </mxGeometry>
        </mxCell>
        <mxCell id="3owRR_AbAOub6mL03Mcm-21" value="" style="shape=tableRow;horizontal=0;startSize=0;swimlaneHead=0;swimlaneBody=0;strokeColor=inherit;top=0;left=0;bottom=0;right=0;collapsible=0;dropTarget=0;fillColor=none;points=[[0,0.5],[1,0.5]];portConstraint=eastwest;" parent="3owRR_AbAOub6mL03Mcm-2" vertex="1">
          <mxGeometry y="610" width="610" height="150" as="geometry" />
        </mxCell>
        <mxCell id="3owRR_AbAOub6mL03Mcm-22" value="&lt;b&gt;Альтернативный сценарий&lt;/b&gt;" style="shape=partialRectangle;html=1;whiteSpace=wrap;connectable=0;strokeColor=inherit;overflow=hidden;fillColor=none;top=0;left=0;bottom=0;right=0;pointerEvents=1;" parent="3owRR_AbAOub6mL03Mcm-21" vertex="1">
          <mxGeometry width="160" height="150" as="geometry">
            <mxRectangle width="160" height="150" as="alternateBounds" />
          </mxGeometry>
        </mxCell>
        <mxCell id="3owRR_AbAOub6mL03Mcm-23" value="&lt;span style=&quot;background-color: initial;&quot;&gt;&lt;span style=&quot;white-space: pre;&quot;&gt;&#x9;&lt;/span&gt;3а.&amp;nbsp;&lt;/span&gt;Система показывает пользователю уведомление о том, что доступных столиков нет и предлагает пользователю выбрать другую дату и время.&lt;div&gt;&lt;br&gt;&lt;div&gt;&lt;span style=&quot;white-space: pre;&quot;&gt;&#x9;&lt;/span&gt;-- Переход к шагу 2 основного сценария&lt;/div&gt;&lt;/div&gt;" style="shape=partialRectangle;html=1;whiteSpace=wrap;connectable=0;strokeColor=inherit;overflow=hidden;fillColor=none;top=0;left=0;bottom=0;right=0;pointerEvents=1;align=left;spacingLeft=7;spacingRight=7;" parent="3owRR_AbAOub6mL03Mcm-21" vertex="1">
          <mxGeometry x="160" width="450" height="150" as="geometry">
            <mxRectangle width="450" height="150" as="alternateBounds" />
          </mxGeometry>
        </mxCell>
      </root>
    </mxGraphModel>
  </diagram>
</mxfile>
